<?xml version="1.0" encoding="iso-8859-1"?>
<!-- Uploaded to: SVG Repo, www.svgrepo.com, Generator: SVG Repo Mixer Tools -->
<!DOCTYPE svg PUBLIC "-//W3C//DTD SVG 1.1//EN" "http://www.w3.org/Graphics/SVG/1.1/DTD/svg11.dtd">
<svg fill="#000000" version="1.1" id="Capa_1" xmlns="http://www.w3.org/2000/svg" xmlns:xlink="http://www.w3.org/1999/xlink" 
	 width="800px" height="800px" viewBox="0 0 25.432 25.432"
	 xml:space="preserve">
<g>
	<g id="avxD0d_1_">
		<g>
			<g>
				<path d="M5.038,14.564c0.007,0.17,0.038,0.344,0.013,0.51C5.024,15.25,5.055,15.407,5.1,15.575
					c0.035,0.132,0.019,0.277,0.019,0.414c-0.028-0.171-0.056-0.342-0.084-0.513c-0.014,0.001-0.027,0.001-0.041,0.002
					c-0.007,0.038-0.02,0.077-0.019,0.114C4.988,16,5.009,16.407,5.014,16.814c0.002,0.139-0.042,0.277-0.05,0.418
					c-0.01,0.167-0.008,0.336-0.004,0.504c0.003,0.135,0.019,0.269,0.026,0.404c0.002,0.04-0.01,0.08-0.015,0.12
					c-0.009,0-0.018,0-0.027,0c-0.015-0.295-0.029-0.591-0.044-0.886c-0.009,0-0.018,0-0.028,0.001
					c-0.001,0.167-0.003,0.334-0.004,0.501c-0.001,0.159,0.003,0.319-0.001,0.479c-0.011,0.414-0.019,0.829-0.042,1.243
					c-0.009,0.175-0.051,0.347-0.078,0.521c0.012-0.352,0.024-0.704,0.036-1.056c-0.01,0-0.02,0-0.031-0.001
					c-0.037,0.226-0.078,0.451-0.108,0.677c-0.007,0.054,0.035,0.113,0.031,0.168c-0.022,0.319-0.051,0.638-0.077,0.956
					c-0.006,0.075-0.008,0.15-0.012,0.225c0.009,0,0.018,0.001,0.027,0.002c0.013-0.108,0.023-0.219,0.039-0.326
					c0.031-0.217,0.064-0.432,0.096-0.647c-0.077,0.428-0.032,0.875-0.218,1.29c0.006-0.208,0.012-0.417,0.018-0.625
					c-0.014,0-0.028-0.001-0.042-0.001c-0.021,0.172-0.052,0.343-0.059,0.515c-0.005,0.115,0.009,0.238,0.045,0.348
					c0.065,0.198,0.1,0.393,0.08,0.604c-0.026,0.271,0.071,0.505,0.265,0.698c0.048,0.048,0.102,0.105,0.115,0.168
					c0.045,0.208,0.147,0.389,0.243,0.575c0.076,0.146,0.042,0.211-0.115,0.248c-0.317,0.074-0.635,0.083-0.956,0.032
					c-0.199-0.03-0.286-0.06-0.295-0.29c-0.003-0.078-0.015-0.159-0.036-0.235c-0.029-0.106,0-0.199,0.066-0.273
					c0.105-0.119,0.076-0.255,0.038-0.374c-0.055-0.172-0.146-0.333-0.225-0.496c-0.014-0.027-0.048-0.046-0.102-0.063
					c0.047-0.276,0.093-0.551,0.14-0.827c-0.003-0.001-0.005-0.001-0.008-0.002c-0.006,0.024-0.012,0.047-0.017,0.071
					c-0.018,0.089-0.017,0.178-0.102,0.248c-0.038,0.031-0.021,0.125-0.038,0.188c-0.015,0.056-0.04,0.109-0.063,0.163
					c-0.02,0.046-0.049,0.089-0.064,0.137c-0.022,0.069-0.036,0.142-0.066,0.209c0.053-0.6,0.105-1.198,0.158-1.799
					c-0.004-0.004-0.007-0.009-0.011-0.013c-0.005,0.023-0.011,0.049-0.016,0.073c-0.014-0.009-0.027-0.017-0.041-0.024
					c0.025-0.28,0.05-0.561,0.076-0.841c-0.012-0.001-0.024-0.003-0.036-0.004c-0.051,0.467-0.102,0.934-0.155,1.421
					c-0.007-0.069-0.018-0.122-0.017-0.174c0.011-0.311,0.027-0.62,0.036-0.931c0.006-0.216-0.001-0.432,0.004-0.648
					c0.005-0.247,0.018-0.494,0.023-0.741c0.004-0.153,0.009-0.306-0.002-0.459c-0.01-0.134-0.023-0.275-0.07-0.399
					c-0.095-0.25-0.087-0.485-0.017-0.742c0.085-0.31,0.098-0.63,0.043-0.954c-0.048-0.288-0.054-0.583-0.083-0.875
					c-0.039-0.403-0.092-0.803-0.242-1.186c-0.13-0.33-0.173-0.681-0.203-1.033c-0.029-0.344-0.068-0.687-0.098-1.031
					c-0.033-0.371-0.072-0.743-0.09-1.115C2.594,10.6,2.59,10.25,2.602,9.901c0.012-0.351,0.135-0.673,0.29-0.987
					C3.26,8.167,3.819,7.583,4.451,7.062c0.334-0.276,0.747-0.415,1.15-0.566C6.015,6.34,6.432,6.395,6.852,6.439
					c0.749,0.081,1.473,0.277,2.202,0.455c0.381,0.093,0.774,0.145,1.163,0.2c0.266,0.037,0.51-0.035,0.728-0.2
					c0.146-0.111,0.302-0.21,0.453-0.315c0.02-0.014,0.035-0.033,0.051-0.052c0.064-0.078,0.126-0.157,0.199-0.248
					c-0.006-0.008-0.028-0.031-0.054-0.057c0.028-0.015,0.055-0.03,0.093-0.05c-0.03-0.019-0.054-0.033-0.09-0.055
					c0.036-0.028,0.068-0.052,0.098-0.079c0.034-0.028,0.064-0.06,0.095-0.091c-0.034-0.025-0.067-0.05-0.127-0.094
					c0.067-0.017,0.118-0.04,0.169-0.042c0.128-0.004,0.256,0.001,0.397,0.003c-0.021-0.023-0.032-0.034-0.026-0.027
					c0.285-0.067,0.582-0.137,0.879-0.207c0-0.008-0.001-0.017-0.001-0.025C13.054,5.543,13.027,5.532,13,5.521
					c0.217,0.008,0.435,0.018,0.598-0.174c-0.035,0.01-0.07,0.021-0.134,0.04c0.065-0.078,0.108-0.133,0.156-0.186
					c0.046-0.051,0.097-0.098,0.04-0.143c0.117-0.118,0.231-0.227,0.336-0.344c0.024-0.028,0.013-0.088,0.019-0.135
					c-0.003-0.001,0.006,0.003,0.017,0.003c0.031-0.001,0.063-0.002,0.096-0.004c-0.004-0.032,0.005-0.077-0.013-0.093
					c-0.096-0.082,0.024-0.129,0.025-0.193c0.025,0.002,0.052,0.003,0.092,0.006c-0.031-0.038-0.055-0.065-0.076-0.092
					c0.127,0.084,0.257,0.109,0.394,0.036c0.008-0.004-0.001-0.043-0.003-0.075c0.02,0.014,0.037,0.038,0.054,0.037
					c0.061-0.004,0.12-0.017,0.181-0.026c-0.013-0.039-0.016-0.083-0.035-0.117c-0.046-0.083-0.101-0.161-0.167-0.269
					c0.064,0.057,0.114,0.098,0.161,0.141c0.049,0.045,0.092,0.085,0.146,0.004c0.008-0.011,0.058,0.006,0.106,0.012
					c-0.028-0.062-0.051-0.114-0.089-0.197c0.073,0.042,0.123,0.069,0.172,0.097c0.068-0.028,0.065-0.077,0.043-0.14
					c-0.035-0.094-0.062-0.191-0.072-0.295c0.027,0.061,0.054,0.121,0.081,0.182c0.005-0.001,0.009-0.001,0.014-0.002
					c-0.011-0.064-0.022-0.128-0.037-0.212c0.07,0.082,0.069,0.229,0.221,0.191c-0.002-0.048-0.005-0.1-0.008-0.151
					c0.055,0.023,0.103,0.044,0.144,0.061c0.052-0.123,0.1-0.236,0.158-0.372c0.023,0.053,0.037,0.081,0.055,0.121
					c0.028-0.037,0.052-0.067,0.073-0.094c0.027,0.026,0.055,0.053,0.09,0.088c0.024-0.145,0.044-0.266,0.066-0.395
					c0.035,0.022,0.062,0.038,0.096,0.06c0.015-0.052,0.027-0.094,0.04-0.142c0.035,0.085,0.068,0.163,0.098,0.236
					c0.079-0.134,0.157-0.265,0.235-0.396c0.006,0.003,0.013,0.005,0.019,0.008c-0.002,0.044-0.004,0.088-0.005,0.134
					c0.069-0.06,0.135-0.117,0.202-0.175c0.006,0.016,0.017,0.045,0.027,0.074c0.007,0.001,0.015,0.001,0.021,0.002
					c0.029-0.142,0.06-0.284,0.088-0.426c0.01,0.001,0.019,0.002,0.027,0.003c0.004,0.085,0.008,0.169,0.012,0.237
					c0.089-0.057,0.185-0.104,0.263-0.171c0.054-0.046,0.091-0.117,0.124-0.182c0.021-0.044,0.023-0.098,0.034-0.147
					c0.011,0,0.021,0,0.03-0.001c0.01,0.057,0.021,0.113,0.033,0.179c0.048-0.033,0.09-0.059,0.138-0.09
					c-0.008,0.037-0.016,0.071-0.023,0.105c0.006,0.006,0.013,0.012,0.019,0.018c0.091-0.071,0.187-0.137,0.271-0.215
					c0.067-0.064,0.105-0.15,0.223-0.166c0.108-0.014,0.163-0.208,0.101-0.305c-0.075-0.121-0.111-0.25-0.127-0.393
					c-0.024-0.241-0.047-0.48,0.01-0.718c0.021-0.091,0.046-0.182,0.075-0.272c0.035-0.106,0.101-0.117,0.169-0.024
					c0.106,0.143,0.226,0.281,0.303,0.439c0.081,0.164,0.209,0.285,0.312,0.427c0.065,0.089,0.125,0.182,0.188,0.273
					c0.017,0.025,0.032,0.05,0.04,0.06c0.053-0.063,0.093-0.152,0.156-0.177c0.1-0.039,0.221,0.052,0.324-0.027
					c0.068,0.067,0.132,0.031,0.2-0.001c0.017-0.008,0.052,0.033,0.074,0.029c0.193-0.036,0.432,0.073,0.562-0.173
					c0.021-0.038,0.062-0.066,0.1-0.093c0.215-0.158,0.334-0.4,0.516-0.587c0.027-0.027,0.046-0.062,0.072-0.09
					c0.077-0.083,0.13-0.074,0.162,0.035c0.062,0.215,0.054,0.43,0.025,0.652c-0.046,0.356-0.181,0.669-0.387,0.958
					c-0.117,0.164-0.108,0.356,0.004,0.525c0.154,0.23,0.318,0.448,0.53,0.631c0.108,0.094,0.194,0.218,0.286,0.332
					c0.079,0.099,0.051,0.212,0.023,0.32c-0.048,0.192-0.082,0.383,0,0.572c0.186,0.425,0.377,0.848,0.562,1.273
					c0.049,0.112,0.087,0.228,0.123,0.345c0.071,0.234,0.128,0.475,0.213,0.704c0.048,0.128,0.131,0.247,0.215,0.356
					c0.087,0.112,0.117,0.224,0.13,0.369c0.019,0.214-0.081,0.393-0.101,0.591c-0.021,0.203-0.1,0.376-0.22,0.533
					c-0.05,0.065-0.104,0.137-0.175,0.175c-0.176,0.096-0.355,0.193-0.545,0.257c-0.241,0.082-0.483,0.073-0.689-0.108
					c-0.136-0.118-0.198-0.275-0.23-0.448c-0.011-0.058-0.02-0.117-0.036-0.174c-0.034-0.128-0.036-0.128-0.178-0.171
					c-0.031,0.073-0.07,0.145-0.089,0.221c-0.009,0.036,0.014,0.084,0.03,0.123c0.071,0.159-0.007,0.335-0.179,0.398
					c-0.156,0.058-0.329-0.031-0.37-0.194c-0.01-0.039-0.014-0.088,0.002-0.122c0.053-0.109,0.042-0.213,0.002-0.321
					c-0.007-0.019-0.013-0.041-0.013-0.061c0.004-0.414-0.29-0.691-0.486-1.007c-0.085-0.137-0.209-0.291-0.401-0.327
					c-0.059-0.011-0.114-0.033-0.172-0.036c-0.094-0.005-0.178-0.021-0.25-0.087c-0.064-0.059-0.127-0.05-0.172,0.03
					c-0.032,0.058-0.068,0.114-0.095,0.174c-0.213,0.497-0.418,0.997-0.639,1.49c-0.175,0.392-0.361,0.779-0.556,1.161
					c-0.12,0.236-0.257,0.465-0.402,0.685c-0.081,0.121-0.073,0.252-0.098,0.38c-0.033,0.171-0.059,0.344-0.078,0.517
					c-0.008,0.068-0.006,0.14,0.01,0.207c0.054,0.224,0.128,0.443,0.171,0.669c0.023,0.122,0.018,0.258-0.008,0.38
					c-0.063,0.289-0.137,0.577-0.224,0.86c-0.123,0.409-0.303,0.791-0.628,1.083c-0.116,0.105-0.165,0.226-0.162,0.385
					c0.006,0.438-0.135,0.841-0.309,1.238c-0.261,0.598-0.517,1.202-0.639,1.846c-0.085,0.446-0.105,0.906-0.156,1.359
					c-0.044,0.388-0.065,0.774-0.187,1.153c-0.087,0.268-0.096,0.562-0.125,0.846c-0.034,0.319-0.059,0.64-0.074,0.96
					c-0.006,0.113,0.032,0.228,0.04,0.342c0.009,0.12,0.024,0.245,0.006,0.362c-0.041,0.25,0.03,0.474,0.146,0.683
					c0.063,0.113,0.169,0.203,0.245,0.312c0.046,0.066,0.075,0.145,0.109,0.218c0.02,0.044,0.028,0.096,0.054,0.135
					c0.086,0.131,0.178,0.258,0.267,0.387c0.09,0.132,0.059,0.224-0.093,0.27c-0.388,0.117-0.781,0.129-1.182,0.075
					c-0.398-0.054-0.516-0.568-0.385-0.803c0.036-0.064,0.076-0.126,0.109-0.191c0.07-0.136,0.042-0.217-0.093-0.298
					c-0.02-0.012-0.033-0.033-0.059-0.059c0.009,0.063,0.016,0.113,0.024,0.176c-0.118-0.091-0.115-0.208-0.126-0.322
					c-0.011-0.113-0.027-0.226-0.043-0.358c-0.032,0.047-0.051,0.076-0.071,0.105c-0.007-0.002-0.013-0.004-0.02-0.006
					c0.008-0.045,0.015-0.09,0.025-0.143c-0.017,0.011-0.031,0.02-0.058,0.035c-0.005-0.105-0.015-0.203-0.014-0.303
					c0.003-0.228,0.116-0.432,0.115-0.655c-0.003-0.029-0.014-0.062-0.006-0.089c0.02-0.068,0.09-0.162,0.066-0.199
					c-0.047-0.073-0.01-0.128,0-0.186c0.021-0.134,0.058-0.265,0.081-0.399c0.009-0.052-0.009-0.108-0.002-0.161
					c0.03-0.24,0.067-0.479,0.096-0.72c0.018-0.146,0.026-0.295,0.037-0.442c0.001-0.018,0.001-0.036-0.004-0.053
					c-0.109-0.367-0.003-0.734,0.004-1.102c0.004-0.254,0.009-0.509,0.011-0.763c0.004-0.456-0.025-0.912,0.058-1.365
					c0.022-0.127,0.034-0.256,0.049-0.384c0.003-0.022-0.004-0.045-0.007-0.076c-0.105,0.028-0.119,0.11-0.132,0.186
					c-0.044,0.259-0.082,0.518-0.126,0.775c-0.073,0.433-0.151,0.866-0.22,1.3c-0.037,0.234-0.067,0.47-0.081,0.707
					c-0.008,0.141,0.023,0.283,0.034,0.425c0.009,0.117,0.029,0.236,0.021,0.353c-0.02,0.306-0.08,0.605-0.236,0.872
					c-0.158,0.269-0.2,0.563-0.231,0.861c-0.039,0.382-0.065,0.766-0.084,1.148c-0.005,0.111,0.022,0.229,0.057,0.336
					c0.059,0.179,0.089,0.35-0.006,0.526c-0.018,0.033-0.024,0.083-0.015,0.119c0.073,0.292,0.157,0.579,0.377,0.805
					c0.043,0.043,0.067,0.112,0.08,0.175c0.027,0.124,0.107,0.208,0.181,0.305c0.098,0.128,0.157,0.287,0.219,0.438
					c0.008,0.02-0.061,0.099-0.103,0.107c-0.187,0.038-0.376,0.072-0.565,0.086c-0.173,0.013-0.349-0.001-0.523-0.009
					c-0.164-0.008-0.328-0.039-0.431-0.178c-0.07-0.095-0.107-0.216-0.157-0.325c-0.095-0.207-0.008-0.368,0.125-0.522
					c0.041-0.049,0.056-0.118,0.086-0.185c-0.085-0.004-0.144-0.007-0.21-0.01c0.011-0.054,0.019-0.09,0.028-0.132
					c-0.062-0.022-0.158,0.024-0.168-0.088c-0.006-0.069-0.026-0.138-0.036-0.207c-0.008-0.05-0.015-0.102-0.014-0.152
					c0-0.03,0.013-0.061,0.026-0.09c0.016-0.034,0.037-0.065,0.036-0.113c-0.014,0.007-0.029,0.016-0.059,0.03
					c0.002-0.062-0.004-0.111,0.007-0.156c0.048-0.199,0.108-0.395,0.151-0.595c0.049-0.229,0.086-0.462,0.128-0.693
					c0.029-0.159,0.061-0.317,0.083-0.478c0.023-0.158,0.039-0.317,0.052-0.477c0.007-0.091,0.011-0.184,0.003-0.274
					c-0.014-0.151-0.052-0.3-0.059-0.451c-0.015-0.305-0.034-0.611-0.018-0.915c0.029-0.522,0.051-1.043,0-1.565
					c-0.024-0.321-0.071-0.644-0.091-0.967c-0.017-0.267-0.007-0.537-0.004-0.805c0.002-0.133,0.024-0.261-0.063-0.387
					c-0.038-0.056-0.023-0.154-0.017-0.231c0.005-0.062-0.022-0.073-0.068-0.104c-0.191-0.13-0.408-0.159-0.624-0.179
					c-0.135-0.012-0.274,0.028-0.411,0.036c-0.182,0.01-0.365,0.013-0.547,0.013c-0.205,0.001-0.409-0.007-0.614-0.007
					c-0.058,0-0.115,0.02-0.174,0.021c-0.028,0.001-0.057-0.017-0.084-0.027c-0.044-0.019-0.086-0.054-0.131-0.057
					c-0.187-0.012-0.376-0.007-0.563-0.024c-0.078-0.007-0.151-0.053-0.227-0.081c-0.14-0.051-0.279-0.103-0.42-0.149
					c-0.131-0.044-0.265-0.081-0.407-0.123c-0.018,0.103-0.042,0.203-0.052,0.305c-0.032,0.328-0.124,0.637-0.276,0.927
					c-0.06,0.113-0.134,0.221-0.211,0.323c-0.149,0.199-0.299,0.396-0.362,0.642c-0.032,0.125-0.058,0.251-0.08,0.379
					c-0.049,0.283-0.089,0.563-0.239,0.826c-0.101,0.178-0.152,0.403-0.16,0.61c-0.023,0.557-0.016,1.116-0.01,1.674
					c0.001,0.137,0.038,0.275,0.068,0.411c0.036,0.168,0.071,0.329,0.01,0.503c-0.062,0.18,0.009,0.354,0.089,0.513
					c0.068,0.136,0.162,0.258,0.244,0.386c0.026,0.041,0.066,0.079,0.074,0.123c0.029,0.162,0.146,0.264,0.238,0.385
					c0.025,0.033,0.06,0.061,0.077,0.097c0.052,0.112,0.027,0.175-0.089,0.221c-0.061,0.024-0.127,0.05-0.191,0.05
					c-0.313,0.002-0.627-0.004-0.94-0.01c-0.034-0.001-0.069-0.011-0.102-0.021c-0.099-0.031-0.164-0.076-0.197-0.197
					c-0.051-0.188-0.016-0.349,0.075-0.507c0.09-0.156,0.074-0.34-0.035-0.482c-0.048-0.062-0.098-0.135-0.116-0.211
					c-0.043-0.185-0.089-0.374-0.096-0.562c-0.008-0.215,0.03-0.431,0.037-0.647c0.005-0.173-0.015-0.348-0.009-0.521
					c0.007-0.198,0.03-0.396,0.047-0.594c0.008-0.101,0.03-0.201,0.025-0.302c-0.016-0.313-0.045-0.626-0.062-0.939
					c-0.01-0.182,0-0.363-0.008-0.544c-0.009-0.201-0.023-0.403-0.046-0.604c-0.017-0.15-0.001-0.284,0.088-0.417
					c0.172-0.256,0.286-0.542,0.373-0.838c0.05-0.171,0.096-0.343,0.145-0.514c0.065-0.227,0-0.446-0.052-0.66
					c-0.049-0.205-0.132-0.403-0.215-0.598c-0.05-0.117-0.126-0.224-0.193-0.331c-0.042-0.068-0.082-0.05-0.115,0.012
					c-0.031,0.058-0.073,0.113-0.091,0.175c-0.022,0.074-0.035,0.155-0.032,0.231c0.017,0.389,0.042,0.777,0.063,1.168
					c0.002,0.028-0.008,0.06-0.012,0.089c-0.009,0-0.018,0-0.026,0c-0.008-0.158-0.021-0.316-0.022-0.474
					c-0.001-0.109-0.021-0.206-0.098-0.286c0.008-0.122,0.017-0.244,0.025-0.367c-0.011,0-0.022-0.001-0.034-0.001
					C4.991,14.319,5.008,14.441,5.038,14.564z M20.538,8.224c-0.109-0.003-0.185-0.007-0.259-0.006
					c-0.048,0.001-0.11-0.006-0.142,0.02c-0.059,0.048-0.042,0.216,0.014,0.27c0.089,0.089,0.26,0.092,0.354,0.006
					C20.61,8.418,20.613,8.317,20.538,8.224z M20.231,7.438c0.04,0.075,0.06,0.154,0.11,0.192c0.084,0.064,0.125,0.132,0.095,0.253
					c0.128-0.132,0.055-0.245,0.014-0.36C20.417,7.43,20.349,7.422,20.231,7.438z M20.388,7.859
					c-0.018-0.008-0.036-0.015-0.053-0.023c-0.031,0.054-0.062,0.107-0.093,0.161c0.031,0.016,0.062,0.033,0.094,0.049
					C20.354,7.984,20.372,7.921,20.388,7.859z"/>
			</g>
		</g>
	</g>
</g>
</svg>