<?xml version="1.0" encoding="iso-8859-1"?>
<!-- Uploaded to: SVG Repo, www.svgrepo.com, Generator: SVG Repo Mixer Tools -->
<!DOCTYPE svg PUBLIC "-//W3C//DTD SVG 1.1//EN" "http://www.w3.org/Graphics/SVG/1.1/DTD/svg11.dtd">
<svg fill="#000000" version="1.1" id="Capa_1" xmlns="http://www.w3.org/2000/svg" xmlns:xlink="http://www.w3.org/1999/xlink" 
	 width="800px" height="800px" viewBox="0 0 35.176 35.175"
	 xml:space="preserve">
<g>
	<g id="ldEPBE_1_">
		<g>
			<g>
				<path d="M11.394,18.559c-0.091-0.294-0.168-0.575-0.264-0.851c-0.156-0.446-0.192-0.886-0.074-1.358
					c0.156-0.623,0.257-1.26,0.362-1.894c0.03-0.178-0.002-0.369-0.02-0.553c-0.011-0.108-0.086-0.22-0.07-0.32
					c0.072-0.45-0.143-0.819-0.296-1.211c-0.181-0.463-0.344-0.933-0.503-1.405c-0.049-0.146-0.12-0.222-0.294-0.193
					c-0.107-0.785-0.299-1.547-0.677-2.272C9.49,8.527,9.421,8.552,9.354,8.576c-0.485,0.173-0.971,0.323-1.48,0.43
					c-0.53,0.112-1.027,0.382-1.538,0.585C6.01,9.72,5.685,9.852,5.35,9.987c-0.081,0.112-0.202,0.219-0.249,0.353
					c-0.154,0.436-0.444,0.67-1.077,0.654c-0.154-0.09-0.434-0.315-0.753-0.428c-0.561-0.198-0.55-0.682-0.657-1.12
					C2.562,9.239,2.507,9.032,2.436,8.751C2.562,8.525,2.647,8.198,2.947,7.96c0.221-0.176,0.337-0.48,0.511-0.719
					c0.412-0.564,0.844-1.114,1.24-1.689c0.13-0.188,0.263-0.445,0.242-0.656C4.872,4.191,5.271,3.794,5.774,3.437
					c0.015-0.01,0.025-0.028-0.023-0.059c0.074-0.27,0.147-0.541,0.221-0.812C6,2.565,6.028,2.563,6.056,2.562
					C5.94,2.183,5.826,1.804,5.704,1.4C5.648,1.485,5.607,1.55,5.516,1.694C5.57,1.117,5.381,0.603,5.692,0.047
					c0.256,0.33,0.437,0.619,0.675,0.852C6.615,1.14,6.916,1.325,7.223,1.558C7.409,1.442,7.61,1.316,7.804,1.196
					c0.051-0.383,0.1-0.749,0.155-1.166c0.159-0.064,0.332-0.036,0.456,0.184c0.152,0.272,0.3,0.546,0.467,0.809
					c0.088,0.138,0.193,0.28,0.324,0.374c0.309,0.221,0.642,0.41,0.959,0.621c0.351,0.235,0.697,0.478,1.042,0.723
					c0.12,0.085,0.216,0.223,0.347,0.271c0.307,0.114,0.47,0.345,0.556,0.558c0.5,0.36,0.988,0.603,1.337,1.057
					c0.334,0.434,0.73,0.819,1.099,1.226c0.161,0.177,0.37,0.331,0.473,0.537c0.158,0.318,0.42,0.439,0.721,0.537
					c0.423,0.138,0.811,0.32,1.179,0.594c0.436,0.325,0.959,0.531,1.435,0.805c0.318,0.184,0.622,0.395,0.932,0.595
					c0.598,0.386,1.221,0.558,1.944,0.377c0.548-0.137,1.12-0.174,1.681-0.256c0.073-0.011,0.149-0.017,0.217-0.045
					c0.709-0.298,1.465-0.345,2.218-0.401c0.073-0.005,0.155-0.005,0.216-0.038c0.632-0.344,1.318-0.19,1.969-0.154
					c0.399,0.021,0.814,0.254,1.17,0.475c0.67,0.416,1.323,0.864,1.941,1.352c0.458,0.362,0.865,0.794,1.178,1.3
					c0.241,0.39,0.562,0.726,0.706,1.18c0.151,0.477,0.312,0.934,0.146,1.454c-0.088,0.274-0.062,0.586-0.074,0.881
					c-0.03,0.669-0.326,1.273-0.456,1.917c-0.022,0.108-0.079,0.229-0.052,0.324c0.143,0.495-0.053,0.984-0.002,1.476
					c0.037,0.362,0.086,0.726,0.219,1.099c-0.059,0.09-0.116,0.18-0.169,0.262c0.019,0.316,0.05,0.626,0.052,0.937
					c0.007,1.184,0.005,2.369,0.006,3.553c0,0.13-0.027,0.269,0.008,0.389c0.102,0.333,0.125,0.646-0.082,0.952
					c-0.047,0.068-0.039,0.179-0.039,0.271c-0.002,1.004,0,2.008,0.004,3.013c0,0.091,0.027,0.182,0.054,0.334
					c-0.603,0.031-1.2,0.016-1.837-0.009c0.048,0.459-0.104,0.919-0.016,1.398c0.053,0.287,0.045,0.589-0.197,0.832
					c-0.223,0.224-0.271,0.512-0.244,0.821c0.019,0.221,0.004,0.444,0.004,0.643c-0.247,0.293-0.559,0.228-0.85,0.233
					c-0.274,0.005-0.547,0.001-0.864,0.001c-0.224-0.327-0.019-0.662,0.179-0.926c0.348-0.465,0.525-0.96,0.537-1.533
					c0.002-0.123,0.051-0.262,0.122-0.362c0.259-0.365,0.31-0.776,0.321-1.207c0.004-0.181,0.055-0.361,0.093-0.54
					c0.137-0.632,0.296-1.272,0.219-1.914c-0.062-0.504-0.149-1.019-0.272-1.507c-0.102-0.4-0.194-0.729,0.021-1.104
					c0.057-0.101,0.068-0.271,0.023-0.378c-0.24-0.577-0.137-1.209-0.312-1.793c-0.078-0.26-0.164-0.517-0.275-0.866
					c0.088-0.215,0.063-0.531-0.052-0.861c-0.12-0.347-0.174-0.717-0.29-1.064c-0.08-0.237-0.219-0.455-0.361-0.743
					c-0.184,0.1-0.357,0.142-0.444,0.252c-0.319,0.404-0.69,0.795-0.892,1.257c-0.25,0.582-0.459,1.183-0.293,1.884
					c0.174,0.729,0.289,1.474,0.522,2.196c0.058-0.042,0.101-0.073,0.146-0.105c0.012,0.034,0.037,0.069,0.033,0.102
					c-0.127,0.952-0.674,1.74-1.019,2.605c-0.124,0.312-0.251,0.625-0.351,0.945c-0.144,0.458-0.392,0.873-0.554,1.314
					c-0.194,0.531-0.481,1.03-0.569,1.612c-0.099,0.657-0.143,0.651-0.817,1.128c-0.038,0.189-0.108,0.402-0.114,0.617
					c-0.005,0.19,0.062,0.383,0.1,0.589c-0.762,0.281-1.442,0.232-2.14-0.063c0.123-0.513,0.517-0.774,0.771-1.125
					c0.275-0.379,0.507-0.742,0.59-1.224c0.072-0.425,0.238-0.852,0.449-1.229c0.383-0.681,0.609-1.424,0.938-2.125
					c0.062-0.132,0.136-0.261,0.179-0.399c0.078-0.255,0.197-0.491,0.115-0.79c-0.066-0.242-0.02-0.517-0.027-0.776
					c-0.01-0.291,0.052-0.589-0.172-0.85c-0.062-0.071-0.043-0.258,0-0.365c0.099-0.24-0.013-0.402-0.101-0.616
					c-0.259-0.626-0.606-1.227-0.631-1.936c-0.011-0.29-0.097-0.576-0.155-0.896c-0.283-0.065-0.562-0.064-0.845,0.071
					c-0.13,0.062-0.281,0.108-0.423,0.107c-0.598-0.004-1.189,0.226-1.795,0.021c-0.166-0.058-0.368-0.009-0.555-0.015
					c-0.644-0.021-1.287-0.044-1.954-0.066c-0.167,0.146-0.208,0.368-0.172,0.592c0.088,0.555-0.194,1.095-0.052,1.649
					c-0.249,0.549-0.22,1.151-0.335,1.728c-0.09,0.45-0.119,0.912-0.174,1.368c-0.016,0.128-0.006,0.264-0.047,0.383
					c-0.078,0.222-0.022,0.427,0,0.649c0.054,0.541,0.162,1.081-0.145,1.617c-0.218,0.382-0.192,0.84-0.018,1.268
					c0.346,0.853,0.419,1.74,0.317,2.646c-0.008,0.072-0.02,0.156-0.062,0.208c-0.286,0.354-0.156,0.688,0.019,1.035
					c0.23,0.457,0.222,0.581-0.022,1.071c-0.623-0.008-1.26,0.32-1.906,0.024c0.027-0.237,0.048-0.427,0.072-0.634
					c-0.698,0.127-0.777,0.118-1.1-0.119c0.203-0.402,0.393-0.803,0.761-1.111c0.197-0.166,0.386-0.408,0.348-0.723
					c0.337-0.437,0.197-0.947,0.212-1.432c0.006-0.217-0.062-0.435-0.086-0.653c-0.033-0.305-0.063-0.61-0.082-0.918
					c-0.052-0.857-0.308-1.664-0.608-2.46c-0.045-0.119-0.104-0.246-0.102-0.368c0.007-0.395-0.121-0.763-0.183-1.141
					c-0.077-0.473-0.309-0.869-0.467-1.298c-0.252-0.685-0.63-1.314-0.942-1.972c-0.242-0.513-0.398-1.072-0.526-1.626
					c-0.083-0.357-0.199-0.658-0.468-0.913c-0.186-0.177-0.327-0.399-0.489-0.601C11.674,18.901,11.524,18.718,11.394,18.559z"/>
			</g>
		</g>
	</g>
</g>
</svg>
